<?xml version="1.0" encoding="UTF-8" standalone="no"?>
<!-- Created with Inkscape (http://www.inkscape.org/) -->

<svg
   xmlns:dc="http://purl.org/dc/elements/1.1/"
   xmlns:cc="http://creativecommons.org/ns#"
   xmlns:rdf="http://www.w3.org/1999/02/22-rdf-syntax-ns#"
   xmlns:svg="http://www.w3.org/2000/svg"
   xmlns="http://www.w3.org/2000/svg"
   xmlns:sodipodi="http://sodipodi.sourceforge.net/DTD/sodipodi-0.dtd"
   xmlns:inkscape="http://www.inkscape.org/namespaces/inkscape"
   width="1195.2209mm"
   height="714.10059mm"
   viewBox="0 0 4235.0349 2530.2777"
   id="svg2"
   version="1.1"
   inkscape:version="0.91 r"
   sodipodi:docname="heroku_backend_devenv.svg">
  <defs
     id="defs4" />
  <sodipodi:namedview
     id="base"
     pagecolor="#ffffff"
     bordercolor="#666666"
     borderopacity="1.0"
     inkscape:pageopacity="0.0"
     inkscape:pageshadow="2"
     inkscape:zoom="0.175"
     inkscape:cx="1883.6576"
     inkscape:cy="1579.1332"
     inkscape:document-units="px"
     inkscape:current-layer="layer1"
     showgrid="false"
     showborder="false"
     inkscape:window-width="1529"
     inkscape:window-height="968"
     inkscape:window-x="65"
     inkscape:window-y="34"
     inkscape:window-maximized="0"
     fit-margin-top="0"
     fit-margin-left="0"
     fit-margin-right="0"
     fit-margin-bottom="0" />
  <metadata
     id="metadata7">
    <rdf:RDF>
      <cc:Work
         rdf:about="">
        <dc:format>image/svg+xml</dc:format>
        <dc:type
           rdf:resource="http://purl.org/dc/dcmitype/StillImage" />
        <dc:title></dc:title>
      </cc:Work>
    </rdf:RDF>
  </metadata>
  <g
     inkscape:label="Layer 1"
     inkscape:groupmode="layer"
     id="layer1"
     transform="translate(1443.927,384.46745)">
    <text
       xml:space="preserve"
       style="font-style:normal;font-weight:normal;font-size:40px;line-height:125%;font-family:sans-serif;letter-spacing:0px;word-spacing:0px;fill:#000000;fill-opacity:1;stroke:none;stroke-width:1px;stroke-linecap:butt;stroke-linejoin:miter;stroke-opacity:1"
       x="-1296.6232"
       y="-34.273018"
       id="text3336"
       sodipodi:linespacing="125%"><tspan
         sodipodi:role="line"
         id="tspan3338"
         x="-1296.6232"
         y="-34.273018">Problem i Windows</tspan></text>
    <text
       xml:space="preserve"
       style="font-style:normal;font-weight:normal;font-size:40px;line-height:125%;font-family:sans-serif;letter-spacing:0px;word-spacing:0px;fill:#000000;fill-opacity:1;stroke:none;stroke-width:1px;stroke-linecap:butt;stroke-linejoin:miter;stroke-opacity:1"
       x="-1443.927"
       y="24.767578"
       id="text3340"
       sodipodi:linespacing="125%"><tspan
         sodipodi:role="line"
         id="tspan3342"
         x="-1443.927"
         y="24.767578">- heroku toolbelt eller Python-PIP-</tspan><tspan
         sodipodi:role="line"
         x="-1443.927"
         y="74.767578"
         id="tspan3344">virtualenv-git/bash krånglade</tspan><tspan
         sodipodi:role="line"
         x="-1443.927"
         y="124.76758"
         id="tspan3346">- idé på lösning: köra VirtualBox</tspan><tspan
         sodipodi:role="line"
         x="-1443.927"
         y="174.76758"
         id="tspan3348">  med t.ex. Ubuntu-VM i, d.v.s</tspan><tspan
         sodipodi:role="line"
         x="-1443.927"
         y="224.76758"
         id="tspan3350">byta till Linux för Heroku toolbelt</tspan><tspan
         sodipodi:role="line"
         x="-1443.927"
         y="274.76758"
         id="tspan3352"> (och hela Python-stacken)</tspan><tspan
         sodipodi:role="line"
         x="-1443.927"
         y="324.76758"
         id="tspan3354" /></text>
    <rect
       style="color:#000000;clip-rule:nonzero;display:inline;overflow:visible;visibility:visible;opacity:1;isolation:auto;mix-blend-mode:normal;color-interpolation:sRGB;color-interpolation-filters:linearRGB;solid-color:#000000;solid-opacity:1;fill:#00ccff;fill-opacity:1;fill-rule:evenodd;stroke:#000000;stroke-width:3.4000001;stroke-linecap:butt;stroke-linejoin:miter;stroke-miterlimit:4;stroke-dasharray:none;stroke-dashoffset:0;stroke-opacity:1;marker:none;color-rendering:auto;image-rendering:auto;shape-rendering:auto;text-rendering:auto;enable-background:accumulate"
       id="rect3356"
       width="548.57141"
       height="261.42856"
       x="-416.65564"
       y="827.8764"
       ry="52.275398"
       rx="52.275398" />
    <rect
       style="color:#000000;clip-rule:nonzero;display:inline;overflow:visible;visibility:visible;opacity:1;isolation:auto;mix-blend-mode:normal;color-interpolation:sRGB;color-interpolation-filters:linearRGB;solid-color:#000000;solid-opacity:1;fill:#00ccff;fill-opacity:1;fill-rule:evenodd;stroke:#000000;stroke-width:3.4000001;stroke-linecap:butt;stroke-linejoin:miter;stroke-miterlimit:4;stroke-dasharray:none;stroke-dashoffset:0;stroke-opacity:1;marker:none;color-rendering:auto;image-rendering:auto;shape-rendering:auto;text-rendering:auto;enable-background:accumulate"
       id="rect3358"
       width="462.85715"
       height="185.71428"
       x="-760.78455"
       y="509.5051"
       ry="52.275398"
       rx="52.275398" />
    <text
       xml:space="preserve"
       style="font-style:normal;font-weight:normal;font-size:86.93704987px;line-height:125%;font-family:sans-serif;letter-spacing:0px;word-spacing:0px;fill:#000000;fill-opacity:1;stroke:none;stroke-width:1px;stroke-linecap:butt;stroke-linejoin:miter;stroke-opacity:1"
       x="-380.68292"
       y="978.92688"
       id="text3360"
       sodipodi:linespacing="125%"><tspan
         sodipodi:role="line"
         id="tspan3362"
         x="-380.68292"
         y="978.92688">Windows 7</tspan></text>
    <path
       style="color:#000000;clip-rule:nonzero;display:inline;overflow:visible;visibility:visible;opacity:1;isolation:auto;mix-blend-mode:normal;color-interpolation:sRGB;color-interpolation-filters:linearRGB;solid-color:#000000;solid-opacity:1;fill:#00ccff;fill-opacity:1;fill-rule:evenodd;stroke:#000000;stroke-width:3.4000001;stroke-linecap:butt;stroke-linejoin:miter;stroke-miterlimit:4;stroke-dasharray:none;stroke-dashoffset:0;stroke-opacity:1;marker:none;color-rendering:auto;image-rendering:auto;shape-rendering:auto;text-rendering:auto;enable-background:accumulate"
       d="m 625.71428,-119.06637 c -12.64031,0 -14.63773,-0.62628 -28.57143,2.85714 -5.84354,1.46089 -11.33171,4.12943 -17.14286,5.71429 -4.68509,1.27775 -9.48597,2.11872 -14.28571,2.85714 -7.58905,1.16755 -15.32791,1.3513 -22.85714,2.85715 -2.08824,0.41764 -3.59206,2.68029 -5.71429,2.85714 -47.32712,0 -12.14519,-1.86777 -42.85714,2.857141 -12.84667,1.97641 -25.81372,1.01867 -37.14286,8.57143 -1.77192,1.18128 -1.90476,3.809524 -2.85714,5.714286 -1.90476,3.809524 -5.06665,7.218921 -5.71429,11.428572 -1.30334,8.471757 0,17.142857 0,25.714285 0,6.666667 0,13.333334 0,20 0,6.94967 -1.50584,16.312659 2.85715,22.8571434 2.24132,3.361991 5.71428,5.71428603 8.57142,8.5714287 1.90477,1.9047619 3.10924,5.0287469 5.71429,5.7142857 15.89933,4.1840342 32.24789,6.6126042 48.57143,8.5714282 10.40157,1.248188 20.95238,0 31.42857,0 1.90476,0 3.80952,0 5.71429,0 0.95238,0 2.43122,-0.851835 2.85714,0 0.0224,0.04474 0.0419,14.159962 0,14.285714 -0.5872,1.761598 -9.88355,8.853538 -11.42857,11.428572 -2.19133,3.652214 -3.73059,7.659548 -5.71429,11.428571 -1.04033,1.976628 -37.57981,69.536533 -40,77.142853 -2.90205,9.12075 -1.59216,19.08408 -2.85714,28.57143 -0.64182,4.81361 -2.32087,9.45921 -2.85714,14.28572 -0.47496,4.27461 -0.80732,28.497 2.85714,31.42857 11.99155,9.59324 25.64937,17.39023 40,22.85714 6.22992,2.3733 13.33333,0 20,0 17.14286,0 34.28571,0 51.42857,0 19.80519,0 44.51933,1.0775 62.85714,-5.71429 13.63249,-5.04907 24.81511,-15.1523 37.14286,-22.85714 2.91191,-1.81994 6.14332,-3.28618 8.57143,-5.71428 7.15871,-7.15872 15.20024,-13.9433 20,-22.85715 2.25762,-4.19272 0,-9.52381 0,-14.28571 0,-0.95238 0,-3.80952 0,-2.85714 0,5.71428 0,11.42857 0,17.14285 0,2.85715 0.46971,5.75316 0,8.57143 -0.49512,2.97072 -2.48359,5.58299 -2.85714,8.57143 -0.59065,4.72513 0,9.52381 0,14.28571 0,8.57143 0,17.14286 0,25.71429 0,2.94349 -0.60234,13.05019 2.85714,14.28571 10.24238,3.658 36.63142,6.77123 51.42857,5.71429 18.4918,-1.32084 35.82814,-2.15205 51.42857,-14.28571 18.6128,-14.47663 35.76298,-30.94764 51.42857,-48.57143 7.7828,-8.75565 19.45073,-33.18718 25.71429,-45.71429 2.85714,-5.71428 5.46877,-11.55807 8.57143,-17.14286 1.66763,-3.00173 2.76977,-6.80472 5.71428,-8.57142 2.44998,-1.46999 5.71429,0 8.57143,0 7.61905,0 15.46558,-1.84789 22.85714,0 11.8011,2.95027 31.61739,17.93975 42.85711,22.85714 8.2775,3.62143 17.1864,5.58669 25.7142,8.57143 6.5561,2.29461 35.7842,17.11181 48.5715,11.42857 18.7876,-8.35005 32.7911,-17.81398 42.8571,-34.28572 8.0078,-13.10357 13.6851,-27.683274 22.8572,-39.999994 24.2535,-32.56907 51.5084,-62.791979 77.1428,-94.285715 7.6993,-9.459085 13.8665,-20.330002 22.8572,-28.571428 82.6084,-75.724363 21.5933,-3.076878 60,-54.285712 0.8081,-1.0775 2.4312,-1.57939 2.8571,-2.85715 0.6023,-1.80701 0,-3.809521 0,-5.714281 0,-1.90476 0.6023,-3.90727 0,-5.71429 -3.9307,-11.79205 -9.9988,-18.38467 -22.8571,-22.85714 -15.7095,-5.46416 -32.3912,-7.57612 -48.5715,-11.42857 -3.82,-0.90952 -7.5953,-2.00531 -11.4285,-2.85714 -4.7406,-1.05346 -9.6788,-1.32148 -14.2858,-2.85715 -1.2777,-0.42591 -3.6042,-1.73648 -2.8571,-2.85714 1.9048,-2.85714 5.7143,-3.80952 8.5714,-5.71429 5.7143,-3.80952 12.2867,-6.57236 17.1429,-11.42857 5.7931,-5.7931 10.8525,-12.56137 14.2857,-20 4.5985,-9.96339 2.8571,-28.82783 2.8571,-40 0,-3.80952 1.3377,-7.8616 0,-11.42857 -5.7539,-15.34379 -24.8981,-19.59191 -37.1428,-25.71428 -55.6524,-27.8262 -36.2827,-19.92087 -80,-37.14286 -21.8851,-8.62142 -42.7015,-20.84619 -65.7143,-25.71429 -1.4873,-0.31462 -86.43301,-7.79724 -111.42849,-5.71428 -2.12223,0.17685 -4.61862,1.03103 -5.71429,2.85714 -4.44194,7.40324 -2.85714,29.79613 -2.85714,37.14286 0,0.95238 0.85184,3.28306 0,2.85714 -18.67512,-9.33756 -5.54253,-5.54253 -17.14286,-17.14286 -11.91428,-11.91428 -24.34988,-23.32031 -37.14285,-34.28571 -7.23102,-6.19801 -14.74612,-12.15145 -22.85715,-17.14286 -4.36792,-2.68795 -9.44164,-4.02939 -14.28571,-5.71428 -17.06721,-5.93642 -33.78872,-13.22289 -51.42857,-17.14286 -8.36732,-1.8594 -17.14286,0 -25.71429,0 -2.85714,0 -5.71428,0 -8.57143,0 -2.85714,0 -6.01592,-1.27775 -8.57143,0 -10.09961,5.04981 -7.74193,8.95033 -11.42857,17.14286 -15.9175,35.37222 -23.69542,50.24799 -40,82.85714 -1.90476,3.80952 -3.52295,7.77636 -5.71428,11.42857 -0.69296,1.15493 -2.25481,1.65247 -2.85715,2.85714 -0.42591,0.85184 0.67344,2.18371 0,2.85715 -0.67343,0.67343 -1.90476,0 -2.85714,0 -2.85714,0 -5.71428,0 -8.57143,0 -11.70123,0 -22.89601,0.93942 -34.28571,-2.85715 -3.25765,-1.08588 -5.31379,-4.6284 -8.57143,-5.71428 -9.04114,-3.01372 -12.8361,-2.85715 -20,-2.85715 -0.95238,0 -1.90476,0 -2.85714,0 -0.95238,0 -2.09524,-0.57142 -2.85715,0 -6.77091,5.07819 -18.98178,21.58058 -22.85714,25.71429 -35.74624,38.12932 -18.86144,15.679 -40,42.85714 -2.92353,3.75882 -6.69562,7.05169 -8.57143,11.42857 -1.12548,2.62613 0,5.71429 0,8.57143 0,2.85715 0,5.71429 0,8.57143 0,12.38095 0,24.76191 0,37.14286 0,7.61905 0,15.23809 0,22.85714 0,0.95238 0,1.90476 0,2.85714 0,0.95239 -0.67343,2.18371 0,2.85715 0.12949,0.12949 12.93858,0 14.28572,0 7.61904,0 15.23809,0 22.85714,0 1.49406,0 10.67731,0.37563 11.42857,0 1.20468,-0.60234 1.65247,-2.25481 2.85714,-2.85715 1.42186,-0.71092 9.22664,0.36699 11.42858,0 4.79013,-0.79835 9.52381,-1.90476 14.28571,-2.85714 z"
       id="path3364"
       inkscape:connector-curvature="0" />
    <text
       xml:space="preserve"
       style="font-style:normal;font-weight:normal;font-size:40px;line-height:125%;font-family:sans-serif;letter-spacing:0px;word-spacing:0px;fill:#000000;fill-opacity:1;stroke:none;stroke-width:1px;stroke-linecap:butt;stroke-linejoin:miter;stroke-opacity:1"
       x="728.06641"
       y="-63.483345"
       id="text3380"
       sodipodi:linespacing="125%"><tspan
         sodipodi:role="line"
         id="tspan3382"
         x="728.06641"
         y="-63.483345">Heroku.com</tspan></text>
    <text
       xml:space="preserve"
       style="font-style:normal;font-weight:normal;font-size:58.54717636px;line-height:125%;font-family:sans-serif;letter-spacing:0px;word-spacing:0px;fill:#000000;fill-opacity:1;stroke:none;stroke-width:1px;stroke-linecap:butt;stroke-linejoin:miter;stroke-opacity:1"
       x="-743.09259"
       y="624.98193"
       id="text3384"
       sodipodi:linespacing="125%"><tspan
         sodipodi:role="line"
         id="tspan3386"
         x="-743.09259"
         y="624.98193">VBox+Ubuntu</tspan></text>
    <flowRoot
       xml:space="preserve"
       id="flowRoot3388"
       style="font-style:normal;font-weight:normal;font-size:40px;line-height:125%;font-family:sans-serif;letter-spacing:0px;word-spacing:0px;fill:#000000;fill-opacity:1;stroke:none;stroke-width:1px;stroke-linecap:butt;stroke-linejoin:miter;stroke-opacity:1"><flowRegion
         id="flowRegion3390"><rect
           id="rect3392"
           width="692.85712"
           height="392.85715"
           x="-334.28571"
           y="160.93364" /></flowRegion><flowPara
         id="flowPara3394" /></flowRoot>    <path
       style="fill:none;fill-rule:evenodd;stroke:#000000;stroke-width:1px;stroke-linecap:butt;stroke-linejoin:miter;stroke-opacity:1"
       d="m -318.57143,553.79078 c 22.00495,-38.1982 57.39596,-65.52405 95.8626,-85.67451 48.40412,-29.94181 95.51316,-61.78707 144.12058,-91.39408 61.151368,-40.45153 123.334399,-81.23054 193.46487,-104.31488 35.00421,-19.52805 70.70683,-38.11655 110.1405,-46.77891 43.59381,-14.46433 88.42913,-26.27286 130.71272,-44.02452 23.84292,-10.35727 64.05354,-28.60798 96.01304,-36.64853 20.01314,2.46233 36.15116,-15.17763 6.90663,-12.8256 -27.62038,0.13536 -76.73092,-12.99365 -91.58263,6.50892 12.49969,21.44713 57.22481,58.82947 73.78496,26.82865 9.94248,-13.2403 21.44057,-25.46262 29.14816,-40.24797"
       id="path3396"
       inkscape:connector-curvature="0" />
    <text
       xml:space="preserve"
       style="font-style:normal;font-weight:normal;font-size:40px;line-height:125%;font-family:sans-serif;letter-spacing:0px;word-spacing:0px;fill:#000000;fill-opacity:1;stroke:none;stroke-width:1px;stroke-linecap:butt;stroke-linejoin:miter;stroke-opacity:1"
       x="-394.37238"
       y="248.2016"
       id="text3401"
       sodipodi:linespacing="125%"
       transform="matrix(0.87226737,-0.48902928,0.48902928,0.87226737,0,0)"><tspan
         sodipodi:role="line"
         id="tspan3403"
         x="-394.37238"
         y="248.2016">git push heroku master</tspan></text>
    <text
       xml:space="preserve"
       style="font-style:normal;font-weight:normal;font-size:40px;line-height:125%;font-family:sans-serif;letter-spacing:0px;word-spacing:0px;fill:#000000;fill-opacity:1;stroke:none;stroke-width:1px;stroke-linecap:butt;stroke-linejoin:miter;stroke-opacity:1"
       x="-357.14288"
       y="768.07648"
       id="text3405"
       sodipodi:linespacing="125%"><tspan
         sodipodi:role="line"
         id="tspan3407"
         x="-357.14288"
         y="768.07648">Vagrant folder sync</tspan></text>
    <path
       style="fill:none;fill-rule:evenodd;stroke:#000000;stroke-width:1px;stroke-linecap:butt;stroke-linejoin:miter;stroke-opacity:1"
       d="m -424.28571,695.21935 c 0.95402,7.66372 -2.67715,16.85029 3.41896,23.13211 8.8648,8.22776 8.03882,23.26767 19.22532,29.55568 6.66794,4.26332 13.32324,8.56012 19.61719,13.34857 9.93877,6.07585 19.00088,13.39114 27.73955,21.06374 4.2511,2.67053 7.59364,5.66012 10.22806,9.94078 3.8473,4.32411 8.72572,7.84203 11.49571,13.04009 6.27849,4.6797 10.16731,11.58473 15.21225,17.33775 2.31415,3.51781 7.60053,6.42621 8.78348,9.60688 -0.89427,0.51795 -1.91623,0.17147 -2.86338,0.11725"
       id="path3409"
       inkscape:connector-curvature="0" />
    <path
       style="fill:none;fill-rule:evenodd;stroke:#000000;stroke-width:1px;stroke-linecap:butt;stroke-linejoin:miter;stroke-opacity:1"
       d="m -426.28437,945.28603 c -21.54992,0 -43.09985,0 -64.64977,0 -7.40778,0 -14.83439,0.52779 -22.22335,0 -5.41561,-0.38682 -10.79311,-1.2149 -16.16244,-2.0203 -8.10205,-1.21531 -16.32072,-1.95563 -24.24366,-4.04061 -4.95987,-1.30523 -9.45545,-3.97794 -14.14214,-6.06092 -57.12163,-25.38739 -28.74001,-11.15071 -88.89342,-48.48732 -14.70625,-9.12801 -6.03909,-2.67607 -20.20306,-14.14213 -10.79066,-8.7353 -23.32207,-15.69546 -32.32488,-26.26397 -6.83543,-8.02421 -9.02301,-19.06984 -14.14213,-28.28427 -1.63525,-2.94344 -4.87862,-4.92844 -6.06092,-8.08122 -0.94583,-2.52223 0.58436,-5.45163 0,-8.08122 -0.78671,-3.5402 -3.16104,-6.58325 -4.04061,-10.10153 -1.29357,-5.1743 -3.13372,-25.77016 -4.04061,-30.30457 -0.29532,-1.47661 -1.54411,-2.61204 -2.0203,-4.04061 -0.21296,-0.63888 0,-1.34687 0,-2.02031 0,-1.34687 0,-2.69374 0,-4.04061 0,-7.40778 0,-14.81557 0,-22.22335 0,-2.02031 0,-4.04061 0,-6.06092 0,-0.67344 0,-1.34687 0,-2.02031 0,-0.67343 -0.30117,-1.41796 0,-2.0203 0.42591,-0.85184 1.59438,-1.16847 2.0203,-2.02031 0.30117,-0.60233 -0.30117,-1.41796 0,-2.0203 0.42592,-0.85184 1.59439,-1.16847 2.02031,-2.02031 0.30117,-0.60233 -0.30117,-1.41796 0,-2.0203 0.42592,-0.85184 1.71913,-1.1168 2.0203,-2.02031 0.37242,-1.11726 0,-10.08727 0,-12.12183"
       id="path3416"
       inkscape:connector-curvature="0" />
    <text
       xml:space="preserve"
       style="font-style:normal;font-weight:normal;font-size:40px;line-height:125%;font-family:sans-serif;letter-spacing:0px;word-spacing:0px;fill:#000000;fill-opacity:1;stroke:none;stroke-width:1px;stroke-linecap:butt;stroke-linejoin:miter;stroke-opacity:1"
       x="-967.72614"
       y="914.98145"
       id="text3418"
       sodipodi:linespacing="125%"><tspan
         sodipodi:role="line"
         id="tspan3420"
         x="-967.72614"
         y="914.98145">localhost:8080</tspan></text>
    <path
       style="fill:none;fill-rule:evenodd;stroke:#000000;stroke-width:1px;stroke-linecap:butt;stroke-linejoin:miter;stroke-opacity:1"
       d="m -765.69563,725.07278 c 2.02031,-2.69374 4.39033,-5.15769 6.06092,-8.08122 1.05657,-1.849 1.06792,-4.15615 2.0203,-6.06092 1.57398,-3.14795 9.02258,-6.22166 12.12183,-8.08122 2.08208,-1.24925 4.11843,-2.58374 6.06092,-4.04061 0.7619,-0.57142 1.49202,-1.22787 2.0203,-2.0203 0.8353,-1.25294 0.76737,-3.20532 2.02031,-4.04061 1.12066,-0.74711 2.76285,0.42592 4.04061,0 4.30391,-1.43464 -0.29557,-8.229 4.04061,-6.06092 2.28164,1.14082 7.56311,9.06532 8.08122,10.10153 0.95238,1.90476 1.06792,4.15615 2.0203,6.06091 0.42592,0.85184 1.34687,1.34687 2.02031,2.02031 2.0203,4.71404 4.15615,9.38023 6.06091,14.14213 7.03453,17.58633 -3.43165,-4.13732 6.06092,10.10153 0.37355,0.56033 -0.47619,1.54411 0,2.02031 4.76607,4.76607 6.06091,-1.19456 6.06091,4.04061"
       id="path3422"
       inkscape:connector-curvature="0" />
    <text
       xml:space="preserve"
       style="font-style:normal;font-weight:normal;font-size:40px;line-height:125%;font-family:sans-serif;letter-spacing:0px;word-spacing:0px;fill:#000000;fill-opacity:1;stroke:none;stroke-width:1px;stroke-linecap:butt;stroke-linejoin:miter;stroke-opacity:1"
       x="-672.7616"
       y="569.50928"
       id="text3424"
       sodipodi:linespacing="125%"><tspan
         sodipodi:role="line"
         id="tspan3426"
         x="-672.7616"
         y="569.50928">0.0.0.0:5000/</tspan></text>
    <path
       style="fill:none;fill-rule:evenodd;stroke:#000000;stroke-width:1px;stroke-linecap:butt;stroke-linejoin:miter;stroke-opacity:1"
       d="m 139.40105,902.85963 c 16.59628,0 0.10033,1.20468 24.24366,-8.08122 86.46605,-33.25617 -17.48474,15.49452 74.75129,-40.4061 43.58525,-26.41531 13.31152,2.72207 52.52793,-26.26397 23.51271,-17.37895 45.45276,-36.80315 68.69038,-54.54824 13.81252,-10.54774 28.61069,-19.761 42.4264,-30.30457 9.21921,-7.03572 42.94338,-34.86216 54.54824,-46.46702 29.85105,-29.85105 37.42282,-40.43397 62.62946,-78.7919 4.63403,-7.05178 7.28289,-15.31058 12.12183,-22.22336 15.70053,-22.42933 21.842,-17.21516 36.36549,-44.44671 5.71319,-10.71222 7.47988,-23.12714 12.12183,-34.34518 3.45458,-8.34857 8.08122,-16.16244 12.12183,-24.24367 3.36718,-10.10152 6.06987,-20.4494 10.10153,-30.30457 2.05575,-5.02517 6.26557,-9.02531 8.08122,-14.14214 5.63008,-15.86659 8.70963,-32.55199 14.14213,-48.48732 4.68079,-13.7303 11.57517,-26.64428 16.16244,-40.4061 0.85184,-2.55551 -0.65332,-5.46791 0,-8.08122 0.73045,-2.92177 2.69374,-5.38748 4.04061,-8.08122 2.69374,-5.38748 5.84419,-10.56987 8.08122,-16.16244 1.82081,-4.55203 2.59881,-9.45626 4.04061,-14.14214 1.25257,-4.07083 2.58507,-8.11908 4.04061,-12.12183 1.23936,-3.40821 3.2539,-6.56132 4.04061,-10.10152 3.83483,-17.25672 -3.34841,-1.3844 2.02031,-12.12183 1.34687,-2.69374 3.21323,-5.18541 4.04061,-8.08122 0.50766,-1.77681 0,-9.42988 0,-12.12184 0,-0.67343 0,-1.34687 0,-2.0203 0,-0.67344 -0.30117,-1.41797 0,-2.02031 0.85184,-1.70367 3.18877,-2.33694 4.04061,-4.04061 0.30117,-0.60233 0,-1.34687 0,-2.0203 0.67343,-1.34687 1.18501,-2.78767 2.02031,-4.04061 6.7005,-6.70051 -0.95239,1.90476 2.0203,-4.04061 0.42592,-0.85184 1.59439,-1.16847 2.02031,-2.02031 0.60233,-1.20467 -0.60234,-2.83593 0,-4.04061 0.42591,-0.85183 1.59438,-1.16847 2.0203,-2.0203 0.30117,-0.60234 0.60234,-2.32148 0,-2.02031 -3.01169,1.50585 -5.27956,4.19315 -8.08122,6.06092 -1.25294,0.83529 -2.79782,1.16998 -4.04061,2.0203 -11.56526,7.91307 -22.52273,16.72028 -34.34519,24.24366 -3.05958,1.94702 -6.8152,2.507 -10.10152,4.04061 -6.82287,3.18401 -13.69946,6.30777 -20.20305,10.10153 -1.6453,0.95975 -2.45576,2.98404 -4.04061,4.04061 -0.56034,0.37356 -2.02031,0.67344 -2.02031,0 0,-0.67343 1.34687,0 2.02031,0 1.34687,0 2.69374,0 4.04061,0 6.06091,0 12.12183,0 18.18274,0 15.48901,0 30.97801,0 46.46702,0 4.71404,0 9.42809,0 14.14214,0 2.0203,0 4.10093,-0.49 6.06091,0 1.46089,0.36522 2.57973,1.65508 4.04061,2.02031 8.52407,2.13101 8.72616,2.0203 14.14214,2.0203 0.67343,0 1.34687,0 2.0203,0 0.67344,0 1.71914,0.60234 2.02031,0 3.19561,-6.39123 -12.29161,-21.9819 -14.14214,-24.24366 -2.73058,-3.33737 -5.38748,-6.73435 -8.08122,-10.10153 -3.28571,-4.10713 -5.99439,-8.83612 -10.10152,-12.12183 -11.05391,-8.84312 -5.07497,-3.05466 -10.10153,-8.08122"
       id="path3428"
       inkscape:connector-curvature="0" />
    <text
       xml:space="preserve"
       style="font-style:normal;font-weight:normal;font-size:40px;line-height:125%;font-family:sans-serif;letter-spacing:0px;word-spacing:0px;fill:#000000;fill-opacity:1;stroke:none;stroke-width:1px;stroke-linecap:butt;stroke-linejoin:miter;stroke-opacity:1"
       x="662.66455"
       y="432.57666"
       id="text3430"
       sodipodi:linespacing="125%"
       transform="matrix(0.99990409,0.01384937,-0.01384937,0.99990409,0,0)"><tspan
         sodipodi:role="line"
         id="tspan3432"
         x="662.66455"
         y="432.57666">aquatic-mystic-1775.heroku.com</tspan></text>
    <rect
       ry="52.275398"
       y="858.18097"
       x="924.82703"
       height="261.42856"
       width="791.00806"
       id="rect3434"
       style="color:#000000;clip-rule:nonzero;display:inline;overflow:visible;visibility:visible;opacity:1;isolation:auto;mix-blend-mode:normal;color-interpolation:sRGB;color-interpolation-filters:linearRGB;solid-color:#000000;solid-opacity:1;fill:#00ccff;fill-opacity:1;fill-rule:evenodd;stroke:#000000;stroke-width:3.4000001;stroke-linecap:butt;stroke-linejoin:miter;stroke-miterlimit:4;stroke-dasharray:none;stroke-dashoffset:0;stroke-opacity:1;marker:none;color-rendering:auto;image-rendering:auto;shape-rendering:auto;text-rendering:auto;enable-background:accumulate"
       rx="52.275398" />
    <text
       sodipodi:linespacing="125%"
       id="text3436"
       y="1009.2314"
       x="960.79968"
       style="font-style:normal;font-weight:normal;font-size:86.93704987px;line-height:125%;font-family:sans-serif;letter-spacing:0px;word-spacing:0px;fill:#000000;fill-opacity:1;stroke:none;stroke-width:1px;stroke-linecap:butt;stroke-linejoin:miter;stroke-opacity:1"
       xml:space="preserve"><tspan
         y="1009.2314"
         x="960.79968"
         id="tspan3438"
         sodipodi:role="line">Android/IPhone</tspan></text>
    <path
       style="fill:none;fill-rule:evenodd;stroke:#000000;stroke-width:1px;stroke-linecap:butt;stroke-linejoin:miter;stroke-opacity:1"
       d="M 1038.4368,856.39261 C 987.12008,857.01096 937.59225,836.73961 892.65012,813.8594 855.19971,784.14271 824.7038,746.34788 784.54666,719.65068 755.40728,697.66996 739.1214,663.99841 711.07677,640.6404 690.3519,606.40033 649.37477,584.03681 643.6421,541.72498 636.26682,501.57114 619.87802,443.49837 622.15244,403.45559"
       id="path3440"
       inkscape:connector-curvature="0"
       sodipodi:nodetypes="cccccc" />
    <text
       xml:space="preserve"
       style="font-style:normal;font-weight:normal;font-size:40px;line-height:125%;font-family:sans-serif;letter-spacing:0px;word-spacing:0px;fill:#000000;fill-opacity:1;stroke:none;stroke-width:1px;stroke-linecap:butt;stroke-linejoin:miter;stroke-opacity:1"
       x="771.42853"
       y="29.505062"
       id="text3383"
       sodipodi:linespacing="125%"><tspan
         sodipodi:role="line"
         id="tspan3385"
         x="771.42853"
         y="29.505062">web-api</tspan></text>
    <text
       xml:space="preserve"
       style="font-style:normal;font-weight:normal;font-size:40px;line-height:125%;font-family:sans-serif;letter-spacing:0px;word-spacing:0px;fill:#000000;fill-opacity:1;stroke:none;stroke-width:1px;stroke-linecap:butt;stroke-linejoin:miter;stroke-opacity:1"
       x="1157.1428"
       y="1223.7909"
       id="text3387"
       sodipodi:linespacing="125%"><tspan
         sodipodi:role="line"
         id="tspan3389"
         x="1157.1428"
         y="1223.7909">collect.html</tspan></text>
    <path
       style="fill:#00ff00;fill-rule:evenodd;stroke:#000000;stroke-width:1px;stroke-linecap:butt;stroke-linejoin:miter;stroke-opacity:1"
       d="m 1728.5714,1603.7908 c 7.619,0 15.2381,0 22.8571,0 0.9524,0 2.4312,-0.8518 2.8572,0 5.007,10.0141 -12.8026,11.3922 -17.1429,14.2857 -6.1891,4.1261 -11.4532,9.4945 -17.1429,14.2857 -12.4056,10.4469 -24.4132,21.3789 -37.1428,31.4286 -5.3904,4.2556 -11.9285,6.9591 -17.1429,11.4286 -21.129,18.1106 -42.7487,31.1035 -51.4285,57.1428 -0.9036,2.7106 0,5.7143 0,8.5715 0,12.3809 0,24.7619 0,37.1428 0,16.849 -2.1296,20.6794 11.4285,37.1429 8.1453,9.8907 17.0031,20.2055 28.5715,25.7143 6.9053,3.2882 34.157,2.8571 45.7142,2.8571 5.7143,0 11.4286,0 17.1429,0 2.8571,0 5.8609,0.9035 8.5714,0 0.9035,-0.3012 -0.8518,-2.4312 0,-2.8571 3.8237,-1.9119 8.5054,2.9893 11.4286,-2.8572 0.6023,-1.2046 -1.5149,-2.969 -2.8571,-2.8571 -10.6112,0.8843 -22.8658,-0.6148 -31.4286,5.7143 -14.7121,10.8741 -23.5253,28.0616 -34.2857,42.8571 -12.1182,16.6625 -23.0107,34.1844 -34.2857,51.4286 -10.1727,15.5582 -17.8272,24.3878 -20,42.8571 -1.1167,9.4917 -2.9358,32.7655 5.7142,42.8572 2.7719,3.2338 7.388,4.3674 11.4286,5.7143 16.0102,5.3367 31.8255,12.1924 48.5714,14.2857 21.7357,2.7169 43.8096,0 65.7143,0 9.5238,0 19.0476,0 28.5715,0 9.5238,0 19.0476,0 28.5714,0 2.8571,0 5.7143,0 8.5714,0 0.9524,0 2.4312,-0.8519 2.8572,0 0.8518,1.7036 0,3.8095 0,5.7143 0,1.9047 0,3.8095 0,5.7142 0,21.5759 -3.4087,35.3276 14.2857,54.2858 3.502,3.7521 37.8223,20.8205 45.7143,22.8571 29.4905,7.6105 77.6928,20.1528 111.4285,14.2857 8.3924,-1.4595 15.4612,-7.2023 22.8572,-11.4286 5.9628,-3.4073 12.0098,-6.8659 17.1428,-11.4285 19.4424,-17.2821 27.871,-79.1546 28.5715,-82.8572 2.1244,-11.2293 -3.284,-23.3391 0,-34.2857 0.9867,-3.289 5.1842,5.1498 8.5714,5.7143 25.5205,4.2534 51.3168,7.0219 77.1428,8.5714 21.8655,1.312 43.8096,0 65.7143,0 4.7619,0 9.5238,0 14.2857,0 7.6191,0 15.5477,2.1499 22.8572,0 13.8363,-4.0695 33.3802,-17.2433 40,-31.4285 10.3232,-22.1213 14.7971,-46.7372 25.7143,-68.5715 10.1597,-20.3194 23.1954,-39.2105 37.1428,-57.1428 5.3242,-6.8454 22.5267,-22.1866 34.2857,-25.7143 5.5488,-1.6646 11.408,-2.0379 17.1429,-2.8572 0.9428,-0.1346 2.1837,-0.6734 2.8571,0 0.6735,0.6735 0.8519,2.4313 0,2.8572 -1.7036,0.8518 -3.8095,0 -5.7142,0 -7.8268,0 -12.0674,0.7074 -20,-5.7143 -54.3401,-43.9895 -37.3326,-25.0267 -54.2858,-65.7143 -6.3971,-15.3532 -14.0788,-30.1713 -20,-45.7143 -1.7287,-4.538 -2.0587,-9.4955 -2.8571,-14.2857 -0.1566,-0.9394 0.8518,-3.283 0,-2.8571 -4.2592,2.1296 -8.6126,4.7314 -11.4286,8.5714 -10.784,14.7056 -13.6971,37.71 -34.2857,42.8571 -21.4338,5.3585 -24.6144,-2.7189 -40,-17.1428 -33.9147,-31.795 -36.4565,-35.1318 -57.1428,-88.5714 -3.1133,-8.0427 -2.3192,-17.1069 -2.8572,-25.7143 -0.6366,-10.1866 0,-21.0769 0,-31.4286 0,-0.9524 0.6734,2.1837 0,2.8571 -1.5058,1.5059 -3.6137,2.5071 -5.7143,2.8572 -9.4411,1.5735 -19.0077,2.4746 -28.5714,2.8571 -20.9356,0.8375 -41.9048,0 -62.8571,0 -4.7619,0 -9.5239,0 -14.2858,0 -0.9523,0 -1.9047,0 -2.8571,0 -0.9524,0 -2.1837,-0.6734 -2.8571,0 -0.6735,0.6735 0,1.9048 0,2.8572 0,1.2867 0.4347,7.7019 0,8.5714 -0.6024,1.2047 -1.7365,2.11 -2.8572,2.8571 -11.9522,7.9682 -24.9655,2.8572 -40,2.8572 -8.5714,0 -17.1428,0 -25.7143,0 -5.7143,0 -11.7218,1.807 -17.1428,0 -6.5153,-2.1718 -11.2107,-7.9681 -17.1429,-11.4286 -5.5185,-3.2191 -11.7252,-5.1854 -17.1428,-8.5714 -2.2843,-1.4277 -4.2201,-3.473 -5.7143,-5.7143 -0.5283,-0.7924 0.8518,-2.4312 0,-2.8571 -1.7037,-0.8519 -3.8096,0 -5.7143,0 -5.7143,0 -11.4286,0 -17.1429,0 -12.3809,0 -24.7619,0 -37.1428,0 -21.9048,0 -43.8096,0 -65.7143,0 -2.8572,0 -5.7143,0 -8.5714,0 -3.8096,0 -7.6931,-0.7471 -11.4286,0 -1.3207,0.2641 -1.6525,2.2548 -2.8572,2.8571 -0.8518,0.4259 -2.8571,-0.9524 -2.8571,0 0,1.3469 1.9949,1.8225 2.8571,2.8571 3.904,4.6848 7.7697,9.4072 11.4286,14.2858 2.0603,2.747 4.1786,5.5001 5.7143,8.5714 1.7593,3.5185 -4.7856,5.7143 5.7143,5.7143 0.9524,0 0,-1.9048 0,-2.8572 0,-0.9523 0.6734,-2.1837 0,-2.8571 -0.6734,-0.6734 -1.9048,0 -2.8572,0 -0.9523,0 -1.9047,0 -2.8571,0 -12.381,0 -24.7619,0 -37.1429,0"
       id="path3391"
       inkscape:connector-curvature="0" />
    <text
       sodipodi:linespacing="125%"
       id="text4193"
       y="1218.0765"
       x="-211.42859"
       style="font-style:normal;font-weight:normal;font-size:40px;line-height:125%;font-family:sans-serif;letter-spacing:0px;word-spacing:0px;fill:#000000;fill-opacity:1;stroke:none;stroke-width:1px;stroke-linecap:butt;stroke-linejoin:miter;stroke-opacity:1"
       xml:space="preserve"><tspan
         y="1218.0765"
         x="-211.42859"
         id="tspan4195"
         sodipodi:role="line">process.html</tspan></text>
    <path
       style="fill:none;fill-rule:evenodd;stroke:#000000;stroke-width:1px;stroke-linecap:butt;stroke-linejoin:miter;stroke-opacity:1"
       d="m 1262.8571,1260.9336 c 28.5716,32.2017 44.9101,73.9719 78.7465,101.7008 29.8595,33.2567 61.4742,65.2409 89.0369,100.4246 22.2893,21.6694 42.2972,46.709 71.4959,59.5076 24.6663,11.5546 38.3615,35.8633 59.813,51.6902 22.8566,6.1682 46.5977,40.0428 48.0936,50.3916 -10.3305,-22.357 -18.9942,-49.5298 -9.7101,-72.234 -17.2933,15.045 -42.0443,13.2907 -58.7263,29.7818 -17.7778,12.4444 -22.6184,16.1911 -37.0179,27.2936 21.264,1.7137 44.1838,-3.5216 64.2693,2.9291 7.1793,-1.6255 37.2143,1.749 13.9991,2.7999"
       id="path4199"
       inkscape:connector-curvature="0" />
    <path
       style="fill:none;fill-rule:evenodd;stroke:#000000;stroke-width:1px;stroke-linecap:butt;stroke-linejoin:miter;stroke-opacity:1"
       d="m -51.428571,1300.9336 c 174.120871,148.4999 385.278371,243.4769 593.823861,333.679 100.0575,25.4464 192.00394,78.0423 297.20922,84.3544 135.85062,7.3477 267.24049,46.5115 402.95809,48.2471 83.5915,-12.6536 231.3439,77.9779 278.3178,30.9255 -48.6236,-83.0981 -164.9904,12.1555 -96.3526,41.7851 30.4189,-13.3316 69.5008,-8.028 95.4722,-30.4196"
       id="path4201"
       inkscape:connector-curvature="0"
       sodipodi:nodetypes="ccccccc" />
    <text
       xml:space="preserve"
       style="font-style:normal;font-weight:normal;font-size:40px;line-height:125%;font-family:sans-serif;letter-spacing:0px;word-spacing:0px;fill:#000000;fill-opacity:1;stroke:none;stroke-width:1px;stroke-linecap:butt;stroke-linejoin:miter;stroke-opacity:1"
       x="1868.5714"
       y="1809.5051"
       id="text4203"
       sodipodi:linespacing="125%"><tspan
         sodipodi:role="line"
         id="tspan4205"
         x="1868.5714"
         y="1809.5051">AWS EC3</tspan></text>
    <text
       xml:space="preserve"
       style="font-style:normal;font-weight:normal;font-size:71.0455246px;line-height:125%;font-family:sans-serif;letter-spacing:0px;word-spacing:0px;fill:#000000;fill-opacity:1;stroke:none;stroke-width:1px;stroke-linecap:butt;stroke-linejoin:miter;stroke-opacity:1"
       x="1816.9683"
       y="273.09238"
       id="text4215"
       sodipodi:linespacing="125%"><tspan
         sodipodi:role="line"
         id="tspan4217"
         x="1816.9683"
         y="273.09238">Lösa CORS-problemet</tspan></text>
    <text
       xml:space="preserve"
       style="font-style:normal;font-weight:normal;font-size:40px;line-height:125%;font-family:sans-serif;letter-spacing:0px;word-spacing:0px;fill:#000000;fill-opacity:1;stroke:none;stroke-width:1px;stroke-linecap:butt;stroke-linejoin:miter;stroke-opacity:1"
       x="1797.1429"
       y="397.05402"
       id="text4219"
       sodipodi:linespacing="125%"><tspan
         sodipodi:role="line"
         id="tspan4221"
         x="1797.1429"
         y="397.05402">1. JSONP - trick</tspan><tspan
         sodipodi:role="line"
         x="1797.1429"
         y="447.05402"
         id="tspan4223">&lt;script src=&quot;handleJSONResult(web-api-anrop)&quot;&gt;</tspan><tspan
         sodipodi:role="line"
         x="1797.1429"
         y="497.05402"
         id="tspan4225" /><tspan
         sodipodi:role="line"
         x="1797.1429"
         y="547.05402"
         id="tspan4227">2.  Access-Control-Allow-Origin-header i webapi</tspan><tspan
         sodipodi:role="line"
         x="1797.1429"
         y="597.05402"
         id="tspan4229">handlers</tspan></text>
    <text
       xml:space="preserve"
       style="font-style:normal;font-weight:normal;font-size:40px;line-height:125%;font-family:sans-serif;letter-spacing:0px;word-spacing:0px;fill:#000000;fill-opacity:1;stroke:none;stroke-width:1px;stroke-linecap:butt;stroke-linejoin:miter;stroke-opacity:1"
       x="1365.7262"
       y="-198.20665"
       id="text4231"
       sodipodi:linespacing="125%"><tspan
         sodipodi:role="line"
         id="tspan4233"
         x="1365.7262"
         y="-198.20665">Allow-Control-Allow-Origin: static-content-server-origin</tspan></text>
  </g>
</svg>
